<mxfile host="app.diagrams.net" modified="2024-04-06T03:13:35.082Z" agent="Mozilla/5.0 (Windows NT 10.0; Win64; x64) AppleWebKit/537.36 (KHTML, like Gecko) Chrome/122.0.0.0 Safari/537.36 OPR/108.0.0.0" etag="jkqOlLfKYfGRzAuYnRpE" version="24.2.2" type="github">
  <diagram name="Page-1" id="e7e014a7-5840-1c2e-5031-d8a46d1fe8dd">
    <mxGraphModel dx="789" dy="447" grid="1" gridSize="10" guides="1" tooltips="1" connect="1" arrows="1" fold="1" page="1" pageScale="1" pageWidth="1169" pageHeight="826" background="none" math="0" shadow="0">
      <root>
        <mxCell id="0" />
        <mxCell id="1" parent="0" />
        <mxCell id="jnUQC-KkqRgf_QvE6ilB-41" value="Técnico" style="swimlane;whiteSpace=wrap" vertex="1" parent="1">
          <mxGeometry x="154.5" y="48" width="280" height="572" as="geometry" />
        </mxCell>
        <mxCell id="jnUQC-KkqRgf_QvE6ilB-42" value="App" style="swimlane;whiteSpace=wrap" vertex="1" parent="1">
          <mxGeometry x="434.5" y="48" width="295.5" height="762" as="geometry" />
        </mxCell>
        <mxCell id="jnUQC-KkqRgf_QvE6ilB-43" value="API" style="swimlane;whiteSpace=wrap" vertex="1" parent="1">
          <mxGeometry x="730" y="48" width="270" height="762" as="geometry" />
        </mxCell>
        <mxCell id="jnUQC-KkqRgf_QvE6ilB-45" value="" style="endArrow=open;strokeColor=#FF0000;endFill=1;rounded=0;exitX=0;exitY=0.5;exitDx=0;exitDy=0;entryX=0.5;entryY=0;entryDx=0;entryDy=0;" edge="1" parent="1" source="jnUQC-KkqRgf_QvE6ilB-54" target="jnUQC-KkqRgf_QvE6ilB-44">
          <mxGeometry relative="1" as="geometry">
            <mxPoint x="630" y="358" as="sourcePoint" />
            <mxPoint x="909" y="315" as="targetPoint" />
            <Array as="points">
              <mxPoint x="275" y="240" />
            </Array>
          </mxGeometry>
        </mxCell>
        <mxCell id="jnUQC-KkqRgf_QvE6ilB-46" value="" style="endArrow=open;strokeColor=#FF0000;endFill=1;rounded=0;entryX=0.5;entryY=0;entryDx=0;entryDy=0;exitX=1;exitY=0.5;exitDx=0;exitDy=0;" edge="1" parent="1" source="jnUQC-KkqRgf_QvE6ilB-44" target="jnUQC-KkqRgf_QvE6ilB-56">
          <mxGeometry relative="1" as="geometry">
            <mxPoint x="1140" y="390" as="sourcePoint" />
            <mxPoint x="610" y="390" as="targetPoint" />
            <Array as="points">
              <mxPoint x="582" y="295" />
            </Array>
          </mxGeometry>
        </mxCell>
        <mxCell id="jnUQC-KkqRgf_QvE6ilB-47" value="Registro de novo chamado" style="shape=umlFrame;whiteSpace=wrap;html=1;pointerEvents=0;width=250;height=30;" vertex="1" parent="1">
          <mxGeometry x="100" y="10" width="950" height="850" as="geometry" />
        </mxCell>
        <mxCell id="jnUQC-KkqRgf_QvE6ilB-48" value="" style="ellipse;html=1;shape=endState;fillColor=#000000;strokeColor=#ff0000;" vertex="1" parent="1">
          <mxGeometry x="567.25" y="710" width="30" height="30" as="geometry" />
        </mxCell>
        <mxCell id="jnUQC-KkqRgf_QvE6ilB-49" value="" style="endArrow=open;strokeColor=#FF0000;endFill=1;rounded=0;exitX=0.5;exitY=1;exitDx=0;exitDy=0;entryX=0;entryY=0.5;entryDx=0;entryDy=0;" edge="1" parent="1" source="jnUQC-KkqRgf_QvE6ilB-75" target="jnUQC-KkqRgf_QvE6ilB-57">
          <mxGeometry relative="1" as="geometry">
            <mxPoint x="642.25" y="460" as="sourcePoint" />
            <mxPoint x="625" y="635" as="targetPoint" />
            <Array as="points">
              <mxPoint x="582" y="489" />
            </Array>
          </mxGeometry>
        </mxCell>
        <mxCell id="jnUQC-KkqRgf_QvE6ilB-77" value="SIM" style="edgeLabel;html=1;align=center;verticalAlign=middle;resizable=0;points=[];" vertex="1" connectable="0" parent="jnUQC-KkqRgf_QvE6ilB-49">
          <mxGeometry x="-0.1376" y="-1" relative="1" as="geometry">
            <mxPoint x="-104" y="-10" as="offset" />
          </mxGeometry>
        </mxCell>
        <mxCell id="jnUQC-KkqRgf_QvE6ilB-50" value="&amp;lt;&amp;lt;Precondição&amp;gt;&amp;gt;&lt;div&gt;Ter executado a atividade&lt;br&gt;&quot;Consulta de equipamentos em unidades&quot;&lt;br&gt;&lt;/div&gt;" style="shape=note;size=20;whiteSpace=wrap;html=1;" vertex="1" parent="1">
          <mxGeometry x="460" y="88" width="230" height="70" as="geometry" />
        </mxCell>
        <mxCell id="jnUQC-KkqRgf_QvE6ilB-51" value="" style="ellipse;shape=startState;fillColor=#000000;strokeColor=#ff0000;" vertex="1" parent="1">
          <mxGeometry x="260" y="88" width="30" height="30" as="geometry" />
        </mxCell>
        <mxCell id="jnUQC-KkqRgf_QvE6ilB-52" value="" style="edgeStyle=elbowEdgeStyle;elbow=horizontal;verticalAlign=bottom;endArrow=open;endSize=8;strokeColor=#FF0000;endFill=1;rounded=0;exitX=0.507;exitY=0.833;exitDx=0;exitDy=0;exitPerimeter=0;" edge="1" parent="1" source="jnUQC-KkqRgf_QvE6ilB-51" target="jnUQC-KkqRgf_QvE6ilB-53">
          <mxGeometry x="484.5" y="148" as="geometry">
            <mxPoint x="555" y="138" as="targetPoint" />
          </mxGeometry>
        </mxCell>
        <mxCell id="jnUQC-KkqRgf_QvE6ilB-53" value="Seleciona a opção de abrir novo chamado" style="whiteSpace=wrap;" vertex="1" parent="1">
          <mxGeometry x="220" y="150" width="110" height="60" as="geometry" />
        </mxCell>
        <mxCell id="jnUQC-KkqRgf_QvE6ilB-54" value="Exibe formulário para abertura de registro" style="whiteSpace=wrap;" vertex="1" parent="1">
          <mxGeometry x="527.25" y="210" width="110" height="60" as="geometry" />
        </mxCell>
        <mxCell id="jnUQC-KkqRgf_QvE6ilB-55" value="" style="endArrow=open;strokeColor=#FF0000;endFill=1;rounded=0;exitX=1;exitY=0.5;exitDx=0;exitDy=0;entryX=0.5;entryY=0;entryDx=0;entryDy=0;" edge="1" parent="1" source="jnUQC-KkqRgf_QvE6ilB-53" target="jnUQC-KkqRgf_QvE6ilB-54">
          <mxGeometry relative="1" as="geometry">
            <mxPoint x="390" y="200" as="sourcePoint" />
            <mxPoint x="621" y="182" as="targetPoint" />
            <Array as="points">
              <mxPoint x="582" y="180" />
            </Array>
          </mxGeometry>
        </mxCell>
        <mxCell id="jnUQC-KkqRgf_QvE6ilB-56" value="Valida informações" style="whiteSpace=wrap;" vertex="1" parent="1">
          <mxGeometry x="527.25" y="320" width="110" height="50" as="geometry" />
        </mxCell>
        <mxCell id="jnUQC-KkqRgf_QvE6ilB-57" value="Registra na base de dados" style="whiteSpace=wrap;" vertex="1" parent="1">
          <mxGeometry x="820" y="464" width="110" height="50" as="geometry" />
        </mxCell>
        <mxCell id="jnUQC-KkqRgf_QvE6ilB-58" value="Exibe mensagem de sucesso" style="whiteSpace=wrap;" vertex="1" parent="1">
          <mxGeometry x="527.25" y="514" width="110" height="50" as="geometry" />
        </mxCell>
        <mxCell id="jnUQC-KkqRgf_QvE6ilB-60" value="Retorna a tela inicial" style="whiteSpace=wrap;" vertex="1" parent="1">
          <mxGeometry x="522.25" y="640" width="120" height="30" as="geometry" />
        </mxCell>
        <mxCell id="jnUQC-KkqRgf_QvE6ilB-64" value="" style="endArrow=open;strokeColor=#FF0000;endFill=1;rounded=0;entryX=0.5;entryY=0;entryDx=0;entryDy=0;exitX=0.5;exitY=1;exitDx=0;exitDy=0;" edge="1" parent="1" source="jnUQC-KkqRgf_QvE6ilB-60" target="jnUQC-KkqRgf_QvE6ilB-48">
          <mxGeometry relative="1" as="geometry">
            <mxPoint x="290" y="840" as="sourcePoint" />
            <mxPoint x="285" y="760" as="targetPoint" />
            <Array as="points" />
          </mxGeometry>
        </mxCell>
        <mxCell id="jnUQC-KkqRgf_QvE6ilB-65" value="" style="endArrow=open;strokeColor=#FF0000;endFill=1;rounded=0;exitX=0.5;exitY=1;exitDx=0;exitDy=0;entryX=0.5;entryY=0;entryDx=0;entryDy=0;" edge="1" parent="1" source="jnUQC-KkqRgf_QvE6ilB-58" target="jnUQC-KkqRgf_QvE6ilB-60">
          <mxGeometry relative="1" as="geometry">
            <mxPoint x="508" y="655" as="sourcePoint" />
            <mxPoint x="275" y="680" as="targetPoint" />
            <Array as="points" />
          </mxGeometry>
        </mxCell>
        <mxCell id="jnUQC-KkqRgf_QvE6ilB-44" value="Preenche informações do chamado" style="whiteSpace=wrap;" vertex="1" parent="1">
          <mxGeometry x="215" y="270" width="120" height="50" as="geometry" />
        </mxCell>
        <mxCell id="jnUQC-KkqRgf_QvE6ilB-75" value="Informações válidas?" style="rhombus;whiteSpace=wrap;html=1;" vertex="1" parent="1">
          <mxGeometry x="527.25" y="394" width="110" height="70" as="geometry" />
        </mxCell>
        <mxCell id="jnUQC-KkqRgf_QvE6ilB-76" value="" style="endArrow=open;strokeColor=#FF0000;endFill=1;rounded=0;entryX=0.5;entryY=0;entryDx=0;entryDy=0;exitX=0.5;exitY=1;exitDx=0;exitDy=0;" edge="1" parent="1" source="jnUQC-KkqRgf_QvE6ilB-56" target="jnUQC-KkqRgf_QvE6ilB-75">
          <mxGeometry relative="1" as="geometry">
            <mxPoint x="345" y="305" as="sourcePoint" />
            <mxPoint x="592" y="330" as="targetPoint" />
            <Array as="points" />
          </mxGeometry>
        </mxCell>
        <mxCell id="jnUQC-KkqRgf_QvE6ilB-78" value="" style="endArrow=open;strokeColor=#FF0000;endFill=1;rounded=0;entryX=1;entryY=0.5;entryDx=0;entryDy=0;exitX=0.5;exitY=1;exitDx=0;exitDy=0;" edge="1" parent="1" source="jnUQC-KkqRgf_QvE6ilB-57" target="jnUQC-KkqRgf_QvE6ilB-58">
          <mxGeometry relative="1" as="geometry">
            <mxPoint x="700" y="560" as="sourcePoint" />
            <mxPoint x="947" y="585" as="targetPoint" />
            <Array as="points">
              <mxPoint x="875" y="540" />
            </Array>
          </mxGeometry>
        </mxCell>
        <mxCell id="jnUQC-KkqRgf_QvE6ilB-79" value="" style="endArrow=open;strokeColor=#FF0000;endFill=1;rounded=0;exitX=1;exitY=0.5;exitDx=0;exitDy=0;entryX=1;entryY=0.5;entryDx=0;entryDy=0;" edge="1" parent="1" source="jnUQC-KkqRgf_QvE6ilB-75" target="jnUQC-KkqRgf_QvE6ilB-54">
          <mxGeometry relative="1" as="geometry">
            <mxPoint x="670" y="430" as="sourcePoint" />
            <mxPoint x="908" y="455" as="targetPoint" />
            <Array as="points">
              <mxPoint x="700" y="430" />
              <mxPoint x="700" y="240" />
            </Array>
          </mxGeometry>
        </mxCell>
        <mxCell id="jnUQC-KkqRgf_QvE6ilB-81" value="NÃO" style="edgeLabel;html=1;align=center;verticalAlign=middle;resizable=0;points=[];" vertex="1" connectable="0" parent="jnUQC-KkqRgf_QvE6ilB-79">
          <mxGeometry x="-0.8396" y="1" relative="1" as="geometry">
            <mxPoint y="-8" as="offset" />
          </mxGeometry>
        </mxCell>
      </root>
    </mxGraphModel>
  </diagram>
</mxfile>
